<svg width="305" height="70" viewBox="0 0 305 70" fill="none" xmlns="http://www.w3.org/2000/svg">
<path d="M280.686 40.5998H268.698V58.3838H254.766V10.8638H268.698V28.5398H280.686V10.8638H294.582V58.3838H280.686V40.5998Z" fill="#D4A017"/>
<path d="M232.01 9.99976C235.082 9.99976 237.806 10.3358 240.182 11.0078C242.582 11.6558 244.514 12.3518 245.978 13.0958C247.466 13.8398 248.378 14.3438 248.714 14.6078L242.126 25.7678C241.742 25.4798 241.07 25.0838 240.11 24.5798C239.174 24.0518 238.118 23.5838 236.942 23.1758C235.766 22.7678 234.638 22.5638 233.558 22.5638C232.286 22.5638 231.23 22.7438 230.39 23.1038C229.55 23.4398 229.13 24.0278 229.13 24.8678C229.13 25.4438 229.358 25.9718 229.814 26.4518C230.27 26.9318 231.038 27.4238 232.118 27.9278C233.222 28.4318 234.722 29.0078 236.618 29.6558C238.466 30.2558 240.158 30.9998 241.694 31.8878C243.23 32.7758 244.55 33.8318 245.654 35.0558C246.782 36.2798 247.658 37.6838 248.282 39.2678C248.906 40.8518 249.218 42.6398 249.218 44.6318C249.218 47.2718 248.666 49.5278 247.562 51.3998C246.482 53.2478 245.03 54.7478 243.206 55.8998C241.382 57.0518 239.342 57.8918 237.086 58.4198C234.854 58.9718 232.586 59.2478 230.282 59.2478C226.754 59.2478 223.61 58.8638 220.85 58.0958C218.114 57.3278 215.894 56.4998 214.19 55.6118C212.51 54.6998 211.478 54.0518 211.094 53.6678L217.898 42.0398C218.162 42.2558 218.726 42.6038 219.59 43.0838C220.478 43.5638 221.534 44.0678 222.758 44.5958C224.006 45.1238 225.29 45.5798 226.61 45.9638C227.93 46.3238 229.154 46.5038 230.282 46.5038C231.794 46.5038 232.91 46.2878 233.63 45.8558C234.35 45.4238 234.71 44.7998 234.71 43.9838C234.71 43.4078 234.482 42.8678 234.026 42.3638C233.594 41.8598 232.802 41.3318 231.65 40.7798C230.522 40.2038 228.914 39.5438 226.826 38.7998C224.81 38.0558 222.89 37.0838 221.066 35.8838C219.242 34.6838 217.754 33.1238 216.602 31.2038C215.45 29.2838 214.874 26.8838 214.874 24.0038C214.874 21.0758 215.69 18.5678 217.322 16.4798C218.954 14.3918 221.078 12.7958 223.694 11.6918C226.31 10.5638 229.082 9.99976 232.01 9.99976Z" fill="#D4A017"/>
<path d="M173.977 10.8638H205.873V22.9598H187.909V28.7198H205.873V40.4198H187.909V46.2878H205.873V58.3838H173.977V10.8638Z" fill="#D4A017"/>
<path d="M129.179 10.8638H150.491C153.371 10.8638 155.915 11.4758 158.123 12.6998C160.331 13.8998 162.059 15.6278 163.307 17.8838C164.555 20.1158 165.179 22.7678 165.179 25.8398C165.179 28.8878 164.675 31.3598 163.667 33.2558C162.683 35.1278 161.495 36.5318 160.103 37.4678C158.711 38.4038 157.427 39.0038 156.251 39.2678L167.627 58.3838H152.003L142.211 40.3478H143.147V58.3838H129.179V10.8638ZM143.147 30.9158H145.451C146.723 30.9158 147.935 30.6158 149.087 30.0158C150.263 29.4158 150.851 28.1798 150.851 26.3078C150.851 24.4358 150.287 23.1998 149.159 22.5998C148.031 21.9998 146.831 21.6998 145.559 21.6998H143.147V30.9158Z" fill="#D4A017"/>
<path d="M94.2542 10.8638H123.594V22.9598H108.222V28.5398H122.334V40.5998H108.222V58.3838H94.2542V10.8638Z" fill="#D4A017"/>
<path d="M54.7971 10.8638H86.6931V22.9598H68.7291V28.7198H86.6931V40.4198H68.7291V46.2878H86.6931V58.3838H54.7971V10.8638Z" fill="#D4A017"/>
<path d="M9.99951 10.8638H31.3115C34.1915 10.8638 36.7355 11.4758 38.9435 12.6998C41.1515 13.8998 42.8795 15.6278 44.1275 17.8838C45.3755 20.1158 45.9995 22.7678 45.9995 25.8398C45.9995 28.8878 45.4955 31.3598 44.4875 33.2558C43.5035 35.1278 42.3155 36.5318 40.9235 37.4678C39.5315 38.4038 38.2475 39.0038 37.0715 39.2678L48.4475 58.3838H32.8235L23.0315 40.3478H23.9675V58.3838H9.99951V10.8638ZM23.9675 30.9158H26.2715C27.5435 30.9158 28.7555 30.6158 29.9075 30.0158C31.0835 29.4158 31.6715 28.1798 31.6715 26.3078C31.6715 24.4358 31.1075 23.1998 29.9795 22.5998C28.8515 21.9998 27.6515 21.6998 26.3795 21.6998H23.9675V30.9158Z" fill="#D4A017"/>
<path d="M268.698 10.8643H254.766V58.3838H268.698V40.5996H280.686V58.3838H294.582V10.8643H280.686V28.54H268.698V10.8643ZM304.582 58.3838C304.582 63.9066 300.105 68.3837 294.582 68.3838H280.686C278.437 68.3837 276.362 67.6407 274.691 66.3877C273.021 67.6404 270.947 68.3837 268.698 68.3838H254.766C249.243 68.3836 244.766 63.9065 244.766 58.3838V54.752C245.878 53.8029 246.81 52.6856 247.562 51.3994C248.665 49.5274 249.218 47.2718 249.218 44.6318C249.218 42.6398 248.906 40.8516 248.282 39.2676C247.658 37.6837 246.782 36.2796 245.654 35.0557C245.372 34.7429 245.076 34.4412 244.766 34.1504V21.2959L248.714 14.6074C248.378 14.3434 247.465 13.8395 245.978 13.0957C245.604 12.9059 245.2 12.7197 244.766 12.5361V10.8643C244.766 5.34151 249.243 0.864414 254.766 0.864258H268.698C270.947 0.86433 273.021 1.60751 274.691 2.86035C276.362 1.60723 278.437 0.864339 280.686 0.864258H294.582C300.105 0.86432 304.582 5.34145 304.582 10.8643V58.3838Z" fill="#FCFCF7"/>
<path d="M230.282 46.5039L229.854 46.4951C229.732 46.4903 229.608 46.4815 229.483 46.4727L230.282 45.751V46.5039ZM229.483 46.4727C228.582 46.4086 227.625 46.2405 226.61 45.9639C225.29 45.5799 224.006 45.1237 222.758 44.5957C221.534 44.0677 220.478 43.564 219.59 43.084C218.726 42.6042 218.163 42.2561 217.898 42.04L211.094 53.668C211.478 54.052 212.51 54.6993 214.19 55.6113C215.894 56.4993 218.114 57.3278 220.85 58.0957C223.437 58.8157 226.362 59.1982 229.625 59.2432L230.282 59.248C232.586 59.248 234.854 58.9719 237.086 58.4199C239.201 57.9249 241.126 57.1557 242.861 56.1123L243.206 55.8994C245.03 54.7474 246.482 53.2473 247.562 51.3994C248.597 49.6444 249.147 47.5521 249.212 45.1221L249.218 44.6318C249.218 42.7644 248.944 41.0762 248.396 39.5674L248.282 39.2676C247.658 37.6837 246.782 36.2796 245.654 35.0557C244.55 33.8317 243.23 32.7757 241.694 31.8877C240.158 30.9997 238.466 30.2562 236.618 29.6562C234.722 29.0083 233.222 28.4317 232.118 27.9277C231.173 27.4869 230.467 27.0553 230 26.6328L229.814 26.4521C229.359 25.9723 229.13 25.444 229.13 24.8682C229.13 24.0282 229.55 23.4395 230.39 23.1035C231.23 22.7435 232.286 22.5635 233.558 22.5635C234.638 22.5635 235.766 22.7678 236.942 23.1758C238.118 23.5838 239.174 24.0521 240.11 24.5801C241.07 25.0839 241.742 25.4796 242.126 25.7676L248.714 14.6074L254.766 18.1797V24.0273L252.546 27.7861C252.702 27.9482 252.855 28.1126 253.007 28.2793H253.008C253.016 28.2878 253.023 28.2962 253.031 28.3047C253.047 28.3225 253.064 28.3405 253.08 28.3584H253.079C253.684 29.021 254.246 29.7126 254.766 30.4316V58.3838H254.929C253.203 60.7627 251.058 62.7679 248.546 64.3545C245.748 66.1217 242.701 67.3605 239.485 68.126L239.486 68.127C239.467 68.1317 239.448 68.1359 239.429 68.1406C239.408 68.1456 239.386 68.1513 239.365 68.1562L239.364 68.1553C236.384 68.882 233.352 69.248 230.282 69.248C226.049 69.248 221.976 68.7888 218.169 67.7295C218.162 67.7275 218.155 67.7256 218.147 67.7236C215.031 66.8488 212.099 65.7984 209.568 64.4795C209.518 64.4535 209.468 64.4273 209.419 64.4004C208.485 63.8932 207.603 63.3917 206.838 62.9111C206.272 62.5559 205.076 61.7929 204.022 60.7393C203.313 60.0301 202.73 59.2344 202.275 58.3838H205.873V46.2881H203.826L208.872 37.6611C208.579 37.2336 208.296 36.7966 208.027 36.3486C207.071 34.755 206.37 33.0849 205.873 31.3799V28.7197H205.259C204.991 27.1507 204.874 25.5689 204.874 24.0039C204.874 23.655 204.882 23.3069 204.896 22.96H205.873V17.1621C206.618 14.7393 207.793 12.4333 209.443 10.3213C212.182 6.81726 215.696 4.22717 219.734 2.50977C219.758 2.49954 219.782 2.48868 219.806 2.47852V2.47949C223.686 0.817664 227.785 2.73836e-05 232.01 0C235.746 0 239.375 0.403001 242.788 1.35449L242.789 1.35352C242.8 1.35644 242.81 1.36035 242.821 1.36328C242.849 1.3709 242.876 1.37708 242.903 1.38477L242.902 1.38574C245.624 2.12597 248.235 3.02528 250.509 4.18066L250.508 4.18164C251.676 4.76571 253.603 5.73061 254.893 6.74414C256.31 7.85809 257.349 9.28932 257.984 10.8643H254.766V18.1797L248.714 14.6074C248.378 14.3434 247.465 13.8395 245.978 13.0957C244.514 12.3518 242.581 11.6558 240.182 11.0078C237.954 10.3779 235.421 10.0433 232.582 10.0039L232.01 10C229.082 10 226.31 10.5636 223.694 11.6914C221.078 12.7953 218.954 14.3917 217.322 16.4795L217.025 16.876C215.591 18.8827 214.874 21.2589 214.874 24.0039L214.881 24.5381C214.948 27.1819 215.522 29.4041 216.602 31.2041C217.754 33.1241 219.242 34.6838 221.066 35.8838C222.89 37.0837 224.81 38.0558 226.826 38.7998L227.587 39.0752C229.309 39.7077 230.663 40.2763 231.65 40.7803C232.802 41.3322 233.594 41.8603 234.026 42.3643L234.187 42.5547C234.535 43.0034 234.71 43.4796 234.71 43.9834C234.71 44.7994 234.35 45.4235 233.63 45.8555C232.91 46.2874 231.794 46.5039 230.282 46.5039V45.751L229.483 46.4727Z" fill="#FCFCF7"/>
<path d="M205.873 10.8643H173.977V58.3838H205.873V46.2881H187.909V40.4199H205.873V28.7197H187.909V22.96H205.873V10.8643ZM215.873 18.9102C215.208 20.4371 214.874 22.1347 214.874 24.0039C214.874 26.1927 215.208 28.104 215.873 29.7383V40.4199C215.873 41.4409 215.718 42.4257 215.434 43.3535C215.649 44.0565 215.788 44.7922 215.843 45.5518L211.094 53.668C211.478 54.052 212.51 54.6993 214.19 55.6113C214.704 55.879 215.266 56.1387 215.873 56.3955V58.3838C215.873 63.9066 211.396 68.3837 205.873 68.3838H173.977C168.454 68.3836 163.977 63.9065 163.977 58.3838H167.627L163.977 52.249V32.6162C164.777 30.8147 165.18 28.5564 165.18 25.8398C165.18 23.3787 164.778 21.1876 163.977 19.2656V10.8643C163.977 5.34151 168.454 0.864414 173.977 0.864258H205.873C211.396 0.864362 215.873 5.34148 215.873 10.8643V18.9102Z" fill="#FCFCF7"/>
<path d="M165.18 25.8398C165.18 22.7679 164.556 20.1158 163.308 17.8838C162.138 15.7686 160.545 14.1176 158.531 12.9307L158.123 12.7002C156.053 11.5527 153.688 10.9428 151.027 10.8711L150.491 10.8643V0.864258C154.798 0.864258 159.028 1.78755 162.897 3.91504L162.898 3.91309C162.918 3.92363 162.937 3.9357 162.956 3.94629C162.961 3.94908 162.967 3.95131 162.972 3.9541L162.971 3.95508C166.863 6.08823 169.926 9.18981 172.058 13.043H172.057C172.865 14.4947 173.498 15.9996 173.977 17.54V34.3926C173.595 35.6057 173.11 36.7979 172.497 37.9502L172.496 37.9492C171.714 39.4312 170.771 40.876 169.639 42.209L173.977 49.498V58.3838H177.626C177.626 60.0879 177.192 61.7928 176.32 63.3262C174.543 66.4524 171.223 68.3838 167.627 68.3838H152.003C150.439 68.3837 148.93 68.0173 147.576 67.3486C146.241 68.0095 144.738 68.3838 143.147 68.3838H129.18C123.657 68.3838 119.18 63.9066 119.18 58.3838V40.5996H122.334V28.54H119.18V22.96H123.595V10.8643H119.18C119.18 5.34141 123.657 0.864258 129.18 0.864258H150.491V10.8643H129.18V58.3838H143.147V42.0723L152.003 58.3838H167.627L156.251 39.2676C157.427 39.0036 158.712 38.4038 160.104 37.4678C161.495 36.5318 162.683 35.1277 163.667 33.2559C164.612 31.4783 165.115 29.1944 165.174 26.4043L165.18 25.8398ZM145.56 21.7002C146.831 21.7002 148.031 21.9997 149.159 22.5996C150.287 23.1996 150.852 24.4357 150.852 26.3076C150.852 28.1796 150.263 29.4156 149.087 30.0156C147.935 30.6155 146.723 30.916 145.451 30.916H143.147V21.7002H145.56Z" fill="#FCFCF7"/>
<path d="M122.334 40.5996V28.54H108.223V22.96H123.595V10.8643H94.2539V58.3838H108.223V40.5996H122.334ZM129.18 47.8848C127.39 49.5668 124.984 50.5996 122.334 50.5996H118.223V58.3838C118.223 63.9065 113.745 68.3836 108.223 68.3838H94.2539C88.7312 68.3836 84.2539 63.9065 84.2539 58.3838H86.6934V46.2881H84.2539V40.4199H86.6934V28.7197H84.2539V22.96H86.6934V10.8643H84.2539C84.2539 5.34154 88.7312 0.864465 94.2539 0.864258H123.595C129.117 0.864493 133.595 5.34156 133.595 10.8643H129.18V47.8848Z" fill="#FCFCF7"/>
<path d="M86.6934 10.8643H54.7969V58.3838H86.6934V46.2881H68.7295V40.4199H86.6934V28.7197H68.7295V22.96H86.6934V10.8643ZM94.2539 58.3838H96.6934C96.6934 63.9066 92.2161 68.3837 86.6934 68.3838H54.7969C49.2742 68.3836 44.7969 63.9065 44.7969 58.3838H48.4473L44.7969 52.249V32.6162C45.5976 30.8147 46 28.5564 46 25.8398C46 23.3787 45.5979 21.1876 44.7969 19.2656V10.8643C44.7969 5.34151 49.2742 0.864414 54.7969 0.864258H86.6934C92.2161 0.864362 96.6934 5.34148 96.6934 10.8643H94.2539V58.3838Z" fill="#FCFCF7"/>
<path d="M46 25.8398C46 22.7679 45.3759 20.1158 44.1279 17.8838C42.9578 15.7686 41.3655 14.1176 39.3516 12.9307L38.9434 12.7002C36.8734 11.5527 34.5083 10.9428 31.8477 10.8711L31.3115 10.8643V0.864258C35.6187 0.864258 39.8479 1.78755 43.7178 3.91504L43.7188 3.91309C43.7382 3.92363 43.757 3.9357 43.7764 3.94629C43.7814 3.94908 43.7869 3.95131 43.792 3.9541L43.791 3.95508C47.6833 6.08823 50.7463 9.18981 52.8779 13.043H52.877C53.685 14.4947 54.3179 15.9996 54.7969 17.54V34.3926C54.4153 35.6057 53.93 36.7979 53.3174 37.9502L53.3164 37.9492C52.5341 39.4312 51.5918 40.876 50.459 42.209L54.7969 49.498V58.3838H58.4463C58.4463 60.0879 58.0124 61.7928 57.1406 63.3262C55.3631 66.4524 52.0435 68.3838 48.4473 68.3838H32.8232C31.2596 68.3837 29.7501 68.0173 28.3965 67.3486C27.0612 68.0095 25.5586 68.3838 23.9678 68.3838H10C4.47715 68.3838 0 63.9066 0 58.3838V10.8643C0 5.34141 4.47715 0.864258 10 0.864258H31.3115V10.8643H10V58.3838H23.9678V42.0723L32.8232 58.3838H48.4473L37.0713 39.2676C38.2473 39.0036 39.5318 38.4038 40.9238 37.4678C42.3157 36.5318 43.5034 35.1277 44.4873 33.2559C45.4323 31.4783 45.9351 29.1944 45.9941 26.4043L46 25.8398ZM26.3799 21.7002C27.6517 21.7002 28.8516 21.9997 29.9795 22.5996C31.1075 23.1996 31.6718 24.4357 31.6719 26.3076C31.6719 28.1796 31.0832 29.4156 29.9072 30.0156C28.7553 30.6155 27.5434 30.916 26.2715 30.916H23.9678V21.7002H26.3799Z" fill="#FCFCF7"/>
</svg>
