<svg width="348" height="81" viewBox="0 0 348 81" fill="none" xmlns="http://www.w3.org/2000/svg">
<path d="M329.836 43.9118C331.9 43.9118 333.664 44.6318 335.128 46.0718C336.592 47.4878 337.324 49.6358 337.324 52.5158C337.324 54.8918 336.808 57.2438 335.776 59.5718C334.768 61.9238 333.424 64.0478 331.744 65.9438C330.088 67.8398 328.288 69.3278 326.344 70.4078L323.068 66.5558C323.956 66.0758 324.916 65.4158 325.948 64.5758C327.004 63.7598 327.976 62.8118 328.864 61.7318C329.752 60.6758 330.388 59.5598 330.772 58.3838C330.34 58.6478 329.644 58.7798 328.684 58.7798C327.076 58.7798 325.612 58.1438 324.292 56.8718C322.972 55.5998 322.312 53.7998 322.312 51.4718C322.312 50.0798 322.648 48.8198 323.32 47.6918C324.016 46.5398 324.94 45.6278 326.092 44.9558C327.244 44.2598 328.492 43.9118 329.836 43.9118Z" fill="black"/>
<path d="M297.672 22.9598H287.412V10.8638H321.864V22.9598H311.604V58.3838H297.672V22.9598Z" fill="black"/>
<path d="M268.803 10.8638H282.735V39.8438C282.735 43.7558 281.979 47.1638 280.467 50.0678C278.955 52.9718 276.723 55.2278 273.771 56.8358C270.843 58.4438 267.231 59.2478 262.935 59.2478C258.639 59.2478 255.003 58.4438 252.027 56.8358C249.075 55.2278 246.843 52.9718 245.331 50.0678C243.819 47.1638 243.063 43.7558 243.063 39.8438V10.8638H256.995V39.0878C256.995 40.8398 257.211 42.2798 257.643 43.4078C258.075 44.5118 258.723 45.3278 259.587 45.8558C260.475 46.3838 261.591 46.6478 262.935 46.6478C264.255 46.6478 265.347 46.3838 266.211 45.8558C267.075 45.3278 267.723 44.5118 268.155 43.4078C268.587 42.2798 268.803 40.8398 268.803 39.0878V10.8638Z" fill="black"/>
<path d="M202.069 34.5878C202.069 36.7238 202.501 38.6798 203.365 40.4558C204.229 42.2078 205.441 43.6118 207.001 44.6678C208.561 45.6998 210.385 46.2158 212.473 46.2158C214.585 46.2158 216.421 45.6998 217.981 44.6678C219.541 43.6118 220.753 42.2078 221.617 40.4558C222.481 38.6798 222.913 36.7238 222.913 34.5878C222.913 32.4518 222.481 30.5078 221.617 28.7558C220.753 27.0038 219.541 25.5998 217.981 24.5438C216.421 23.4878 214.585 22.9598 212.473 22.9598C210.385 22.9598 208.561 23.4878 207.001 24.5438C205.441 25.5998 204.229 27.0038 203.365 28.7558C202.501 30.5078 202.069 32.4518 202.069 34.5878ZM187.525 34.5878C187.525 31.1318 188.149 27.9158 189.397 24.9398C190.669 21.9398 192.433 19.3238 194.689 17.0918C196.945 14.8598 199.585 13.1198 202.609 11.8718C205.657 10.6238 208.945 9.99976 212.473 9.99976C216.073 9.99976 219.385 10.6238 222.409 11.8718C225.457 13.1198 228.097 14.8598 230.329 17.0918C232.585 19.3238 234.325 21.9398 235.549 24.9398C236.797 27.9158 237.421 31.1318 237.421 34.5878C237.421 38.0678 236.821 41.3078 235.621 44.3078C234.421 47.2838 232.705 49.8998 230.473 52.1558C228.265 54.3878 225.637 56.1278 222.589 57.3758C219.541 58.6238 216.169 59.2478 212.473 59.2478C208.681 59.2478 205.249 58.6238 202.177 57.3758C199.129 56.1278 196.513 54.3878 194.329 52.1558C192.145 49.8998 190.465 47.2838 189.289 44.3078C188.113 41.3078 187.525 38.0678 187.525 34.5878Z" fill="black"/>
<path d="M147.109 10.8638H168.421C171.301 10.8638 173.845 11.4758 176.053 12.6998C178.261 13.8998 179.989 15.6278 181.237 17.8838C182.485 20.1158 183.109 22.7678 183.109 25.8398C183.109 28.8878 182.605 31.3598 181.597 33.2558C180.613 35.1278 179.425 36.5318 178.033 37.4678C176.641 38.4038 175.357 39.0038 174.181 39.2678L185.557 58.3838H169.933L160.141 40.3478H161.077V58.3838H147.109V10.8638ZM161.077 30.9158H163.381C164.653 30.9158 165.865 30.6158 167.017 30.0158C168.193 29.4158 168.781 28.1798 168.781 26.3078C168.781 24.4358 168.217 23.1998 167.089 22.5998C165.961 21.9998 164.761 21.6998 163.489 21.6998H161.077V30.9158Z" fill="black"/>
<path d="M117.618 31.3118H141.99V34.5878C141.99 38.0678 141.426 41.3078 140.298 44.3078C139.17 47.2838 137.538 49.8998 135.402 52.1558C133.29 54.3878 130.746 56.1278 127.77 57.3758C124.794 58.6238 121.458 59.2478 117.762 59.2478C113.946 59.2478 110.502 58.6238 107.43 57.3758C104.382 56.1278 101.766 54.3878 99.5821 52.1558C97.3981 49.8998 95.7181 47.2838 94.5421 44.3078C93.3901 41.3078 92.8141 38.0678 92.8141 34.5878C92.8141 31.1318 93.3901 27.9158 94.5421 24.9398C95.7181 21.9398 97.3981 19.3238 99.5821 17.0918C101.766 14.8598 104.382 13.1198 107.43 11.8718C110.502 10.6238 113.946 9.99976 117.762 9.99976C121.218 9.99976 124.206 10.3718 126.726 11.1158C129.246 11.8598 131.37 12.8318 133.098 14.0318C134.826 15.2078 136.242 16.4798 137.346 17.8478C138.45 19.1918 139.326 20.4638 139.974 21.6638L126.582 27.7118C125.91 26.5598 124.914 25.4798 123.594 24.4718C122.298 23.4638 120.354 22.9598 117.762 22.9598C116.202 22.9598 114.774 23.2718 113.478 23.8958C112.206 24.4958 111.114 25.3358 110.202 26.4158C109.29 27.4718 108.582 28.7078 108.078 30.1238C107.598 31.5158 107.358 33.0038 107.358 34.5878C107.358 36.1958 107.598 37.7078 108.078 39.1238C108.582 40.5158 109.29 41.7518 110.202 42.8318C111.114 43.8878 112.206 44.7158 113.478 45.3158C114.774 45.9158 116.202 46.2158 117.762 46.2158C119.01 46.2158 120.126 46.1318 121.11 45.9638C122.118 45.7718 122.97 45.4958 123.666 45.1358C124.386 44.7518 124.95 44.2838 125.358 43.7318C125.79 43.1558 126.066 42.4958 126.186 41.7518H117.618V31.3118Z" fill="black"/>
<path d="M54.797 10.8638H86.693V22.9598H68.729V28.7198H86.693V40.4198H68.729V46.2878H86.693V58.3838H54.797V10.8638Z" fill="black"/>
<path d="M9.99951 10.8638H31.3115C34.1915 10.8638 36.7355 11.4758 38.9435 12.6998C41.1515 13.8998 42.8795 15.6278 44.1275 17.8838C45.3755 20.1158 45.9995 22.7678 45.9995 25.8398C45.9995 28.8878 45.4955 31.3598 44.4875 33.2558C43.5035 35.1278 42.3155 36.5318 40.9235 37.4678C39.5315 38.4038 38.2475 39.0038 37.0715 39.2678L48.4475 58.3838H32.8235L23.0315 40.3478H23.9675V58.3838H9.99951V10.8638ZM23.9675 30.9158H26.2715C27.5435 30.9158 28.7555 30.6158 29.9075 30.0158C31.0835 29.4158 31.6715 28.1798 31.6715 26.3078C31.6715 24.4358 31.1075 23.1998 29.9795 22.5998C28.8515 21.9998 27.6515 21.6998 26.3795 21.6998H23.9675V30.9158Z" fill="black"/>
<path d="M330.272 33.917C334.747 34.0214 338.848 35.7341 342.079 38.8838H342.08C342.084 38.8876 342.088 38.8917 342.092 38.8955C342.108 38.9113 342.125 38.9266 342.141 38.9424L342.14 38.9434C346.193 42.9037 347.324 48.0879 347.324 52.5156C347.324 56.3441 346.49 60.0318 344.966 63.5098L344.968 63.5107C343.552 66.8139 341.649 69.8302 339.274 72.5215L339.275 72.5225C336.959 75.1749 334.278 77.4395 331.2 79.1494C327.034 81.4637 321.814 80.5168 318.727 76.8867L315.45 73.0342C313.496 70.7362 312.684 67.6788 313.239 64.7139C313.498 63.3337 314.04 62.0421 314.813 60.9111C312.987 57.922 312.312 54.5835 312.312 51.4717C312.313 48.3908 313.079 45.3442 314.729 42.5742L314.761 42.5205C316.287 39.9943 318.371 37.9141 320.921 36.3975V36.3965C323.631 34.7594 326.666 33.9121 329.836 33.9121L330.272 33.917ZM322.319 51.9023C322.397 54.0229 323.055 55.6796 324.292 56.8721C325.612 58.1439 327.076 58.7802 328.684 58.7803C329.644 58.7803 330.34 58.6478 330.772 58.3838C330.388 59.5597 329.752 60.6755 328.864 61.7314C327.976 62.8114 327.004 63.7602 325.948 64.5762C324.916 65.4161 323.956 66.0757 323.068 66.5557L326.344 70.4082C328.288 69.3282 330.088 67.8394 331.744 65.9434C333.424 64.0475 334.768 61.924 335.776 59.5723C336.808 57.2443 337.324 54.8916 337.324 52.5156C337.324 49.8155 336.68 47.759 335.394 46.3457L335.128 46.0723C333.664 44.6323 331.9 43.9121 329.836 43.9121C328.492 43.9121 327.244 44.2601 326.092 44.9561L325.879 45.085C324.826 45.743 323.973 46.6116 323.32 47.6914L323.198 47.9053C322.608 48.9782 322.313 50.1668 322.312 51.4717L322.319 51.9023Z" fill="white"/>
<path d="M321.864 22.96V10.8643H287.412V22.96H297.672V58.3838H311.604V22.96H321.864ZM331.864 22.96C331.864 28.4827 327.387 32.96 321.864 32.96H321.604V58.3838C321.604 63.9066 317.127 68.3837 311.604 68.3838H297.672C292.149 68.3836 287.672 63.9065 287.672 58.3838V32.96H287.412C285.722 32.9599 284.131 32.5389 282.735 31.7988V10.8643H277.412C277.412 5.34147 281.889 0.864355 287.412 0.864258H321.864C327.387 0.864258 331.864 5.34141 331.864 10.8643V22.96Z" fill="white"/>
<path d="M268.793 39.7305C268.746 41.1951 268.533 42.4213 268.155 43.4082C267.723 44.512 267.075 45.3275 266.211 45.8555C265.347 46.3834 264.255 46.6474 262.936 46.6475L262.441 46.6357C261.315 46.578 260.364 46.3174 259.587 45.8555C258.723 45.3275 258.076 44.5118 257.644 43.4082C257.266 42.4213 257.052 41.1951 257.005 39.7305L256.995 39.0879V10.8643H243.063V39.8438L243.072 40.5713C243.161 44.1796 243.914 47.3449 245.331 50.0674C246.843 52.9714 249.075 55.2279 252.027 56.8359C254.817 58.3434 258.188 59.1441 262.138 59.2383L262.936 59.248C267.231 59.248 270.844 58.4439 273.771 56.8359C276.723 55.2279 278.955 52.9713 280.467 50.0674C281.884 47.3449 282.638 44.1797 282.727 40.5713L282.735 39.8438V10.8643H268.803V39.0879L268.793 39.7305ZM287.412 22.96H292.735V39.8438C292.735 45.0521 291.723 50.1028 289.337 54.6855C286.881 59.402 283.203 63.0853 278.555 65.6172L278.554 65.6162C273.795 68.2212 268.433 69.248 262.936 69.248C257.418 69.248 252.052 68.2156 247.273 65.6338C247.263 65.6284 247.253 65.6226 247.243 65.6172C242.595 63.0853 238.917 59.4019 236.461 54.6855C235.304 52.4633 234.472 50.1305 233.92 47.7236C234.57 46.6428 235.138 45.505 235.621 44.3076C236.821 41.3077 237.421 38.0678 237.421 34.5879C237.421 31.1319 236.797 27.9155 235.549 24.9395C234.876 23.2912 234.048 21.7592 233.063 20.3428V10.8643C233.063 5.34141 237.541 0.864258 243.063 0.864258H256.995C259.204 0.864261 261.244 1.58222 262.898 2.79492C264.553 1.5819 266.594 0.864337 268.803 0.864258H282.735C288.258 0.864393 292.735 5.34149 292.735 10.8643H287.412V22.96Z" fill="white"/>
<path d="M237.421 34.5879C237.421 31.1319 236.797 27.9155 235.549 24.9395C234.401 22.1271 232.801 19.6521 230.746 17.5146L230.329 17.0918C228.237 14.9992 225.785 13.339 222.976 12.1113L222.409 11.8721C219.574 10.702 216.486 10.0799 213.145 10.0068L212.474 10C208.946 10 205.657 10.6241 202.609 11.8721C199.585 13.1201 196.945 14.8598 194.689 17.0918L194.272 17.5146C192.215 19.6521 190.59 22.127 189.397 24.9395C188.149 27.9155 187.525 31.1319 187.525 34.5879L187.532 35.2373C187.601 38.4717 188.187 41.4951 189.289 44.3076C190.465 47.2836 192.145 49.9002 194.329 52.1562C196.513 54.3881 199.129 56.128 202.177 57.376C205.057 58.546 208.254 59.1671 211.767 59.2402L212.474 59.248C215.938 59.248 219.118 58.6993 222.014 57.6025L222.589 57.376C225.446 56.2059 227.935 54.6033 230.055 52.5684L230.474 52.1562C232.706 49.9002 234.421 47.2836 235.621 44.3076C236.746 41.4951 237.344 38.4717 237.414 35.2373L237.421 34.5879ZM212.913 34.5879C212.913 33.8401 212.772 33.4301 212.648 33.1787C212.599 33.0787 212.555 33.0113 212.519 32.9619C212.504 32.9617 212.49 32.96 212.474 32.96C212.471 32.96 212.468 32.9599 212.465 32.96C212.428 33.0095 212.384 33.0776 212.334 33.1787C212.21 33.4301 212.069 33.8401 212.069 34.5879C212.069 35.3103 212.201 35.7485 212.344 36.0518C212.378 36.1199 212.41 36.1722 212.438 36.2139C212.449 36.214 212.461 36.2158 212.474 36.2158C212.5 36.2158 212.524 36.2125 212.546 36.2119C212.573 36.1706 212.604 36.1188 212.638 36.0518C212.78 35.7485 212.913 35.3106 212.913 34.5879ZM222.908 34.9863C222.858 36.9677 222.427 38.7911 221.617 40.4561L221.451 40.7803C220.6 42.382 219.444 43.678 217.981 44.668C216.422 45.6999 214.585 46.2158 212.474 46.2158L212.085 46.21C210.158 46.1495 208.464 45.6355 207.001 44.668C205.539 43.678 204.382 42.3819 203.531 40.7803L203.365 40.4561C202.555 38.7911 202.125 36.9677 202.074 34.9863L202.069 34.5879C202.069 32.5856 202.449 30.7518 203.208 29.0869L203.365 28.7559C204.229 27.004 205.441 25.5999 207.001 24.5439C208.561 23.4879 210.386 22.96 212.474 22.96L212.866 22.9658C214.814 23.0277 216.519 23.554 217.981 24.5439C219.541 25.5999 220.753 27.0039 221.617 28.7559C222.481 30.5078 222.913 32.4519 222.913 34.5879L222.908 34.9863ZM243.063 39.8438C243.063 43.1218 243.597 46.0449 244.658 48.6152C243.089 52.3184 240.921 55.6588 238.169 58.5811L237.582 59.1885C234.382 62.4233 230.608 64.8977 226.378 66.6299C221.989 68.4268 217.31 69.248 212.474 69.248C207.575 69.248 202.84 68.4389 198.413 66.6406C198.405 66.6372 198.396 66.6333 198.388 66.6299C194.148 64.894 190.371 62.4087 187.182 59.1494C187.169 59.1367 187.157 59.1241 187.145 59.1113C184.029 55.8931 181.639 52.1563 179.989 47.9824C179.986 47.974 179.982 47.9654 179.979 47.957C178.69 44.6694 177.929 41.2408 177.649 37.7158C177.776 37.6353 177.905 37.5541 178.033 37.4678C179.425 36.5318 180.613 35.1277 181.597 33.2559C182.605 31.3599 183.109 28.8878 183.109 25.8398C183.109 22.9703 182.564 20.4677 181.475 18.3311C183.099 15.2488 185.161 12.4526 187.656 9.9834C190.865 6.80912 194.607 4.35609 198.794 2.62793L198.82 2.61719C203.154 0.84265 207.74 0 212.474 0C217.241 4.71044e-05 221.855 0.830441 226.197 2.61816L226.198 2.61719C230.42 4.34572 234.189 6.80961 237.4 10.0205H237.399C239.654 12.2583 241.544 14.7665 243.063 17.5146V39.8438Z" fill="white"/>
<path d="M183.109 25.8398C183.109 22.7679 182.485 20.1158 181.237 17.8838C180.067 15.7686 178.475 14.1176 176.461 12.9307L176.053 12.7002C173.983 11.5527 171.618 10.9428 168.957 10.8711L168.421 10.8643V0.864258C172.728 0.864258 176.957 1.78755 180.827 3.91504L180.828 3.91309C180.848 3.92363 180.866 3.9357 180.886 3.94629C180.891 3.94908 180.896 3.95131 180.901 3.9541L180.9 3.95508C184.793 6.08823 187.856 9.18981 189.987 13.043H189.986C191.157 15.1466 191.958 17.3624 192.457 19.6357C191.234 21.2454 190.214 23.0131 189.397 24.9395C188.149 27.9155 187.525 31.1319 187.525 34.5879C187.525 36.9233 187.792 39.1503 188.321 41.2695C188.08 41.5879 187.83 41.9016 187.568 42.209L194.15 53.2695C195.989 56.3599 196.027 60.1999 194.25 63.3262C192.472 66.4524 189.153 68.3838 185.557 68.3838H169.933C168.369 68.3837 166.859 68.0173 165.506 67.3486C164.171 68.0095 162.668 68.3838 161.077 68.3838H147.109C141.587 68.3838 137.109 63.9066 137.109 58.3838V50.1309C138.429 48.373 139.492 46.4326 140.298 44.3076C141.426 41.3076 141.99 38.0678 141.99 34.5879V31.3115H137.109V22.957L139.975 21.6641C139.327 20.4641 138.451 19.1916 137.347 17.8477C137.27 17.7525 137.189 17.6597 137.109 17.5654V10.8643C137.109 5.34141 141.587 0.864258 147.109 0.864258H168.421V10.8643H147.109V58.3838H161.077V42.0723L169.933 58.3838H185.557L174.181 39.2676C175.357 39.0036 176.641 38.4038 178.033 37.4678C179.425 36.5318 180.613 35.1277 181.597 33.2559C182.542 31.4783 183.044 29.1944 183.104 26.4043L183.109 25.8398ZM163.489 21.7002C164.761 21.7002 165.961 21.9997 167.089 22.5996C168.217 23.1996 168.781 24.4357 168.781 26.3076C168.781 28.1796 168.193 29.4156 167.017 30.0156C165.865 30.6155 164.653 30.916 163.381 30.916H161.077V21.7002H163.489Z" fill="white"/>
<path d="M140.298 44.3076L147.109 46.8682V53.1396C145.858 55.2526 144.376 57.2205 142.665 59.0283C139.549 62.3214 135.831 64.8391 131.638 66.5977C127.272 68.4284 122.595 69.248 117.763 69.248C112.849 69.248 108.101 68.4417 103.667 66.6406C103.659 66.6372 103.65 66.6333 103.642 66.6299C99.402 64.894 95.6239 62.4088 92.4346 59.1494C92.4222 59.1367 92.4098 59.1241 92.3975 59.1113C90.0987 56.7368 88.1963 54.0792 86.6934 51.1729V47.4082L94.542 44.3076C95.718 47.2836 97.398 49.9002 99.582 52.1562C101.766 54.3882 104.383 56.128 107.431 57.376C110.31 58.5458 113.517 59.1671 117.051 59.2402L117.763 59.248C121.228 59.248 124.376 58.6994 127.208 57.6025L127.771 57.376C130.746 56.128 133.29 54.3881 135.402 52.1562C137.538 49.9002 139.17 47.2836 140.298 44.3076ZM86.6934 28.7197H83.2539C83.5542 26.7628 84.0113 24.8403 84.6328 22.96H86.6934V18.0605C88.2001 15.1385 90.1128 12.4705 92.4346 10.0977C95.6239 6.83827 99.402 4.35307 103.642 2.61719L103.667 2.60742C108.101 0.806276 112.849 0 117.763 0C121.894 2.88191e-05 125.881 0.440063 129.558 1.52539C132.828 2.49089 135.95 3.85439 138.724 5.76562C141.091 7.37682 143.259 9.26864 145.072 11.5H145.073C145.793 12.3756 146.476 13.2763 147.109 14.2002V46.8682L140.298 44.3076C141.426 41.3076 141.99 38.0678 141.99 34.5879V31.3115H117.618V41.752H126.187C126.067 42.4958 125.79 43.1555 125.358 43.7314C124.95 44.2834 124.386 44.7517 123.666 45.1357C122.97 45.4957 122.118 45.7719 121.11 45.9639C120.126 46.1318 119.011 46.2158 117.763 46.2158C116.203 46.2158 114.775 45.9154 113.479 45.3154C112.207 44.7154 111.114 43.888 110.202 42.832C109.29 41.7521 108.582 40.516 108.078 39.124C107.658 37.8851 107.422 36.5724 107.369 35.1865L107.358 34.5879C107.358 33.004 107.598 31.5159 108.078 30.124C108.582 28.7081 109.29 27.472 110.202 26.416C111.114 25.336 112.207 24.4955 113.479 23.8955C114.774 23.2716 116.203 22.96 117.763 22.96C120.354 22.96 122.299 23.4637 123.595 24.4717C124.915 25.4796 125.91 26.56 126.582 27.7119L139.975 21.6641C139.327 20.4641 138.451 19.1916 137.347 17.8477C136.243 16.4798 134.826 15.2081 133.099 14.0322C131.479 12.9072 129.51 11.982 127.194 11.2578L126.727 11.1162C124.364 10.4187 121.59 10.0475 118.405 10.0039L117.763 10C113.947 10 110.503 10.6241 107.431 11.8721L106.864 12.1113C104.057 13.339 101.63 14.9992 99.582 17.0918L99.1787 17.5146C97.1903 19.6521 95.6445 22.127 94.542 24.9395C93.39 27.9155 92.8145 31.1319 92.8145 34.5879L92.8213 35.2373C92.8888 38.4716 93.462 41.4951 94.542 44.3076L86.6934 47.4082V46.2881H84.6348C84.0046 44.3729 83.5447 42.4139 83.2441 40.4199H86.6934V28.7197Z" fill="white"/>
<path d="M86.6934 10.8643H54.7969V58.3838H86.6934V46.2881H68.7295V40.4199H86.6934V28.7197H68.7295V22.96H86.6934V10.8643ZM96.6934 20.7139C95.8495 22.0258 95.1321 23.4342 94.542 24.9395C93.39 27.9155 92.8145 31.1319 92.8145 34.5879C92.8145 38.0678 93.3901 41.3077 94.542 44.3076C95.132 45.8006 95.8497 47.2028 96.6934 48.5146V58.3838C96.6934 63.9066 92.2161 68.3837 86.6934 68.3838H54.7969C49.2742 68.3836 44.7969 63.9065 44.7969 58.3838H48.4473L44.7969 52.249V32.6162C45.5976 30.8147 46 28.5564 46 25.8398C46 23.3787 45.5979 21.1876 44.7969 19.2656V10.8643C44.7969 5.34151 49.2742 0.864414 54.7969 0.864258H86.6934C92.2161 0.864362 96.6934 5.34148 96.6934 10.8643V20.7139Z" fill="white"/>
<path d="M46 25.8398C46 22.7679 45.3759 20.1158 44.1279 17.8838C42.9578 15.7686 41.3655 14.1176 39.3516 12.9307L38.9434 12.7002C36.8734 11.5527 34.5083 10.9428 31.8477 10.8711L31.3115 10.8643V0.864258C35.6187 0.864258 39.8479 1.78755 43.7178 3.91504L43.7188 3.91309C43.7382 3.92363 43.757 3.9357 43.7764 3.94629C43.7814 3.94908 43.7869 3.95131 43.792 3.9541L43.791 3.95508C47.6833 6.08823 50.7463 9.18981 52.8779 13.043H52.877C53.685 14.4947 54.3179 15.9996 54.7969 17.54V34.3926C54.4153 35.6057 53.93 36.7979 53.3174 37.9502L53.3164 37.9492C52.5341 39.4312 51.5918 40.876 50.459 42.209L54.7969 49.498V58.3838H58.4463C58.4463 60.0879 58.0124 61.7928 57.1406 63.3262C55.3631 66.4524 52.0435 68.3838 48.4473 68.3838H32.8232C31.2596 68.3837 29.7501 68.0173 28.3965 67.3486C27.0612 68.0095 25.5586 68.3838 23.9678 68.3838H10C4.47715 68.3838 0 63.9066 0 58.3838V10.8643C0 5.34141 4.47715 0.864258 10 0.864258H31.3115V10.8643H10V58.3838H23.9678V42.0723L32.8232 58.3838H48.4473L37.0713 39.2676C38.2473 39.0036 39.5318 38.4038 40.9238 37.4678C42.3157 36.5318 43.5034 35.1277 44.4873 33.2559C45.4323 31.4783 45.9351 29.1944 45.9941 26.4043L46 25.8398ZM26.3799 21.7002C27.6517 21.7002 28.8516 21.9997 29.9795 22.5996C31.1075 23.1996 31.6718 24.4357 31.6719 26.3076C31.6719 28.1796 31.0832 29.4156 29.9072 30.0156C28.7553 30.6155 27.5434 30.916 26.2715 30.916H23.9678V21.7002H26.3799Z" fill="white"/>
</svg>
