<svg width="376" height="61" viewBox="0 0 376 61" fill="none" xmlns="http://www.w3.org/2000/svg">
<path d="M367.859 33.9121C369.923 33.9121 371.687 34.6323 373.151 36.0723C374.615 37.4882 375.348 39.6358 375.348 42.5156C375.348 44.8916 374.832 47.2443 373.8 49.5723C372.792 51.924 371.447 54.0475 369.768 55.9434C368.112 57.8394 366.311 59.3282 364.367 60.4082L361.092 56.5557C361.98 56.0757 362.94 55.4161 363.972 54.5762C365.028 53.7602 366 52.8114 366.888 51.7314C367.776 50.6755 368.412 49.5597 368.796 48.3838C368.364 48.6478 367.667 48.7803 366.707 48.7803C365.099 48.7802 363.635 48.1439 362.315 46.8721C360.995 45.6001 360.336 43.7997 360.336 41.4717C360.336 40.0797 360.672 38.8194 361.344 37.6914C362.04 36.5397 362.964 35.628 364.115 34.9561C365.267 34.2601 366.515 33.9121 367.859 33.9121ZM162.044 0C165.644 5.11324e-05 168.956 0.62412 171.979 1.87207C175.027 3.12006 177.667 4.85984 179.899 7.0918C182.155 9.3237 183.895 11.9396 185.119 14.9395C186.367 17.9155 186.991 21.1319 186.991 24.5879C186.991 28.0678 186.391 31.3077 185.191 34.3076C183.991 37.2836 182.276 39.9002 180.044 42.1562C177.836 44.3882 175.207 46.128 172.159 47.376C169.111 48.6238 165.74 49.248 162.044 49.248C158.252 49.248 154.819 48.624 151.747 47.376C148.699 46.128 146.083 44.3881 143.899 42.1562C141.715 39.9002 140.035 37.2836 138.859 34.3076C137.683 31.3077 137.096 28.0678 137.096 24.5879C137.096 21.1319 137.72 17.9155 138.968 14.9395C140.24 11.9396 142.004 9.3237 144.26 7.0918C146.516 4.85986 149.156 3.12005 152.18 1.87207C155.228 0.624085 158.516 0 162.044 0ZM21.3115 0.864258C24.1915 0.864258 26.7354 1.47621 28.9434 2.7002C31.1514 3.90019 32.8799 5.62779 34.1279 7.88379C35.3759 10.1158 36 12.7679 36 15.8398C36 18.8878 35.4953 21.3599 34.4873 23.2559C33.5034 25.1277 32.3157 26.5318 30.9238 27.4678C29.5318 28.4038 28.2473 29.0036 27.0713 29.2676L38.4473 48.3838H22.8232L13.9678 32.0723V48.3838H0V0.864258H21.3115ZM76.6934 12.96H58.7295V18.7197H76.6934V30.4199H58.7295V36.2881H76.6934V48.3838H44.7969V0.864258H76.6934V12.96ZM117.05 33.0957V0.864258H130.982V48.3838H112.046L97.6826 15.8965V48.3838H83.75V0.864258H102.578L117.05 33.0957ZM213.818 30.3477L222.458 0.864258H238.19L221.595 48.3838H206.042L189.446 0.864258H205.179L213.818 30.3477ZM285.192 48.3838H270.324L267.3 40.1396H250.344L247.284 48.3838H232.38L251.964 0.864258H265.608L285.192 48.3838ZM315.802 12.96H305.542V48.3838H291.609V12.96H281.35V0.864258H315.802V12.96ZM352.811 12.96H334.847V18.7197H352.811V30.4199H334.847V36.2881H352.811V48.3838H320.914V0.864258H352.811V12.96ZM162.044 12.96C159.956 12.96 158.131 13.4879 156.571 14.5439C155.011 15.5999 153.799 17.0039 152.936 18.7559C152.072 20.5078 151.64 22.4519 151.64 24.5879C151.64 26.7239 152.072 28.6801 152.936 30.4561C153.8 32.2079 155.011 33.612 156.571 34.668C158.131 35.7 159.956 36.2158 162.044 36.2158C164.156 36.2157 165.992 35.6999 167.552 34.668C169.112 33.612 170.324 32.2079 171.188 30.4561C172.051 28.6801 172.483 26.7239 172.483 24.5879C172.483 22.4519 172.051 20.5078 171.188 18.7559C170.324 17.0039 169.112 15.5999 167.552 14.5439C165.992 13.488 164.156 12.96 162.044 12.96ZM255.024 28.0439H262.62L258.876 17.5674H258.769L255.024 28.0439ZM13.9678 20.916H16.2715C17.5434 20.916 18.7553 20.6155 19.9072 20.0156C21.0832 19.4156 21.6719 18.1796 21.6719 16.3076C21.6718 14.4357 21.1075 13.1996 19.9795 12.5996C18.8516 11.9997 17.6517 11.7002 16.3799 11.7002H13.9678V20.916Z" fill="#B96244"/>
</svg>
